<svg width="23" height="17" viewBox="0 0 23 17" fill="none" xmlns="http://www.w3.org/2000/svg">
<path d="M8.66796 8.5C8.66796 9.2252 8.95604 9.9207 9.46884 10.4335C9.98163 10.9463 10.6771 11.2344 11.4023 11.2344C12.1275 11.2344 12.823 10.9463 13.3358 10.4335C13.8486 9.9207 14.1367 9.2252 14.1367 8.5C14.1367 7.7748 13.8486 7.0793 13.3358 6.5665C12.823 6.05371 12.1275 5.76562 11.4023 5.76562C10.6771 5.76562 9.98163 6.05371 9.46884 6.5665C8.95604 7.0793 8.66796 7.7748 8.66796 8.5ZM22.0029 7.87012C19.6885 2.99463 16.1899 0.541016 11.5 0.541016C6.80761 0.541016 3.31151 2.99463 0.997059 7.87256C0.904225 8.06913 0.856079 8.28383 0.856079 8.50122C0.856079 8.71861 0.904225 8.93331 0.997059 9.12988C3.31151 14.0054 6.81005 16.459 11.5 16.459C16.1924 16.459 19.6885 14.0054 22.0029 9.12744C22.1909 8.73193 22.1909 8.27295 22.0029 7.87012ZM11.4023 12.7969C9.02929 12.7969 7.10546 10.873 7.10546 8.5C7.10546 6.12695 9.02929 4.20312 11.4023 4.20312C13.7754 4.20312 15.6992 6.12695 15.6992 8.5C15.6992 10.873 13.7754 12.7969 11.4023 12.7969Z" fill="white"/>
</svg>
